<svg width="95" height="20" viewBox="0 0 95 20" fill="none" xmlns="http://www.w3.org/2000/svg">
<g id="Tech Blog">
<path d="M0 3.10369V0.568176H11.946V3.10369H7.4929V15.1136H4.45312V3.10369H0Z" fill="#364FC7"/>
<path d="M17.2461 15.3267C16.1239 15.3267 15.158 15.0994 14.3484 14.6449C13.5434 14.1856 12.9232 13.5369 12.4876 12.6989C12.052 11.8561 11.8342 10.8594 11.8342 9.7088C11.8342 8.58664 12.052 7.60179 12.4876 6.75426C12.9232 5.90672 13.5363 5.24621 14.3271 4.77272C15.1225 4.29924 16.0553 4.06249 17.1254 4.06249C17.8451 4.06249 18.515 4.1785 19.1353 4.41051C19.7603 4.63778 20.3048 4.98106 20.7688 5.44034C21.2376 5.89962 21.6022 6.47727 21.8626 7.17329C22.123 7.86458 22.2532 8.67424 22.2532 9.60227V10.4332H13.0415V8.55823H19.4052C19.4052 8.12263 19.3105 7.73674 19.1211 7.40056C18.9317 7.06439 18.6689 6.8016 18.3327 6.61221C18.0013 6.41808 17.6154 6.32102 17.1751 6.32102C16.7158 6.32102 16.3086 6.42755 15.9535 6.64062C15.6031 6.84895 15.3285 7.13068 15.1296 7.48579C14.9308 7.83617 14.829 8.22679 14.8242 8.65767V10.4403C14.8242 10.9801 14.9237 11.4465 15.1225 11.8395C15.3261 12.2325 15.6126 12.5355 15.9819 12.7486C16.3512 12.9616 16.7892 13.0682 17.2958 13.0682C17.632 13.0682 17.9397 13.0208 18.2191 12.9261C18.4985 12.8314 18.7376 12.6894 18.9364 12.5C19.1353 12.3106 19.2868 12.0786 19.391 11.804L22.1893 11.9886C22.0472 12.661 21.756 13.2481 21.3157 13.75C20.8801 14.2472 20.3166 14.6354 19.6254 14.9148C18.9388 15.1894 18.1457 15.3267 17.2461 15.3267Z" fill="#364FC7"/>
<path d="M29.1566 15.3267C28.0392 15.3267 27.078 15.09 26.2731 14.6165C25.4729 14.1383 24.8574 13.4754 24.4265 12.6278C24.0004 11.7803 23.7873 10.8049 23.7873 9.7017C23.7873 8.58428 24.0027 7.60416 24.4336 6.76136C24.8692 5.91382 25.4871 5.25331 26.2873 4.77982C27.0875 4.3016 28.0392 4.06249 29.1424 4.06249C30.0941 4.06249 30.9274 4.23532 31.6424 4.58096C32.3574 4.9266 32.9232 5.41193 33.3398 6.03693C33.7565 6.66193 33.9861 7.39583 34.0288 8.23863H31.1737C31.0932 7.69412 30.8801 7.25615 30.5344 6.92471C30.1935 6.58854 29.7461 6.42045 29.1921 6.42045C28.7234 6.42045 28.3138 6.54829 27.9634 6.80397C27.6178 7.05492 27.3479 7.42187 27.1538 7.90482C26.9596 8.38778 26.8626 8.97253 26.8626 9.65909C26.8626 10.3551 26.9573 10.947 27.1467 11.4347C27.3408 11.9223 27.613 12.294 27.9634 12.5497C28.3138 12.8054 28.7234 12.9332 29.1921 12.9332C29.5378 12.9332 29.8479 12.8622 30.1225 12.7202C30.4019 12.5781 30.6315 12.3722 30.8114 12.1023C30.9961 11.8276 31.1168 11.4986 31.1737 11.1151H34.0288C33.9814 11.9484 33.7541 12.6823 33.3469 13.3168C32.9445 13.9465 32.3881 14.4389 31.6779 14.794C30.9677 15.1491 30.1272 15.3267 29.1566 15.3267Z" fill="#364FC7"/>
<path d="M38.9915 8.80681V15.1136H35.9659V0.568176H38.9062V6.12926H39.0341C39.2803 5.48532 39.678 4.98106 40.2273 4.61647C40.7765 4.24715 41.4654 4.06249 42.294 4.06249C43.0516 4.06249 43.7121 4.22821 44.2756 4.55965C44.8438 4.88636 45.2841 5.35748 45.5966 5.97301C45.9138 6.5838 46.0701 7.31534 46.0653 8.16761V15.1136H43.0398V8.70738C43.0445 8.03503 42.8741 7.51183 42.5284 7.13778C42.1875 6.76373 41.7093 6.5767 41.0938 6.5767C40.6818 6.5767 40.3172 6.66429 40 6.83948C39.6875 7.01467 39.4413 7.27035 39.2614 7.60653C39.0862 7.93797 38.9962 8.33806 38.9915 8.80681Z" fill="#364FC7"/>
<path d="M53.1321 15.1136V0.568176H58.956C60.026 0.568176 60.9186 0.726794 61.6335 1.04403C62.3485 1.36126 62.8859 1.8016 63.2457 2.36505C63.6056 2.92376 63.7855 3.5677 63.7855 4.29687C63.7855 4.86505 63.6719 5.36458 63.4446 5.79545C63.2173 6.22159 62.9048 6.57196 62.5071 6.84659C62.1141 7.11647 61.6643 7.30823 61.1577 7.42187V7.56392C61.7116 7.58759 62.2301 7.74384 62.7131 8.03267C63.2008 8.32149 63.5961 8.72632 63.8991 9.24715C64.2022 9.76325 64.3537 10.3788 64.3537 11.0937C64.3537 11.8655 64.1619 12.5544 63.7784 13.1605C63.3996 13.7618 62.8385 14.2377 62.0952 14.5881C61.3518 14.9384 60.4356 15.1136 59.3466 15.1136H53.1321ZM56.2074 12.5994H58.7145C59.5715 12.5994 60.1965 12.4361 60.5895 12.1094C60.9825 11.7779 61.179 11.3376 61.179 10.7883C61.179 10.3859 61.0819 10.0308 60.8878 9.72301C60.6937 9.41524 60.4167 9.17376 60.0568 8.99857C59.7017 8.82338 59.2779 8.73579 58.7855 8.73579H56.2074V12.5994ZM56.2074 6.65482H58.4872C58.9086 6.65482 59.2827 6.58143 59.6094 6.43465C59.9408 6.28314 60.2012 6.07007 60.3906 5.79545C60.5848 5.52083 60.6818 5.19176 60.6818 4.80823C60.6818 4.28267 60.4948 3.8589 60.1207 3.53693C59.7514 3.21496 59.2258 3.05397 58.544 3.05397H56.2074V6.65482Z" fill="#364FC7"/>
<path d="M69.3235 0.568176V15.1136H66.2979V0.568176H69.3235Z" fill="#364FC7"/>
<path d="M76.6761 15.3267C75.5729 15.3267 74.6188 15.0923 73.8139 14.6236C73.0137 14.1501 72.3958 13.4919 71.9602 12.6491C71.5246 11.8016 71.3068 10.8191 71.3068 9.7017C71.3068 8.57481 71.5246 7.58996 71.9602 6.74715C72.3958 5.89962 73.0137 5.24147 73.8139 4.77272C74.6188 4.29924 75.5729 4.06249 76.6761 4.06249C77.7794 4.06249 78.7311 4.29924 79.5312 4.77272C80.3362 5.24147 80.9564 5.89962 81.392 6.74715C81.8277 7.58996 82.0455 8.57481 82.0455 9.7017C82.0455 10.8191 81.8277 11.8016 81.392 12.6491C80.9564 13.4919 80.3362 14.1501 79.5312 14.6236C78.7311 15.0923 77.7794 15.3267 76.6761 15.3267ZM76.6903 12.9829C77.1922 12.9829 77.6113 12.8409 77.9474 12.5568C78.2836 12.268 78.5369 11.875 78.7074 11.3778C78.8826 10.8807 78.9702 10.3149 78.9702 9.68039C78.9702 9.04592 78.8826 8.48011 78.7074 7.98295C78.5369 7.48579 78.2836 7.0928 77.9474 6.80397C77.6113 6.51515 77.1922 6.37073 76.6903 6.37073C76.1837 6.37073 75.7576 6.51515 75.4119 6.80397C75.071 7.0928 74.813 7.48579 74.6378 7.98295C74.4673 8.48011 74.3821 9.04592 74.3821 9.68039C74.3821 10.3149 74.4673 10.8807 74.6378 11.3778C74.813 11.875 75.071 12.268 75.4119 12.5568C75.7576 12.8409 76.1837 12.9829 76.6903 12.9829Z" fill="#364FC7"/>
<path d="M88.9276 19.4318C87.9474 19.4318 87.107 19.2969 86.4062 19.027C85.7102 18.7618 85.1562 18.3996 84.7443 17.9403C84.3324 17.4811 84.0649 16.965 83.9418 16.392L86.7401 16.0156C86.8253 16.2334 86.9602 16.437 87.1449 16.6264C87.3296 16.8158 87.5734 16.9673 87.8764 17.081C88.1842 17.1993 88.5582 17.2585 88.9986 17.2585C89.6567 17.2585 90.1989 17.0975 90.625 16.7756C91.0559 16.4583 91.2713 15.9257 91.2713 15.1776V13.1818H91.1435C91.0109 13.4848 90.812 13.7713 90.5469 14.0412C90.2817 14.3111 89.9408 14.5312 89.5241 14.7017C89.1075 14.8722 88.6103 14.9574 88.0327 14.9574C87.2135 14.9574 86.4678 14.768 85.7955 14.3892C85.1278 14.0057 84.5952 13.4209 84.1974 12.6349C83.8045 11.8442 83.608 10.8452 83.608 9.63778C83.608 8.40198 83.8092 7.36979 84.2116 6.54119C84.6141 5.71259 85.1492 5.09232 85.8168 4.68039C86.4891 4.26846 87.2254 4.06249 88.0256 4.06249C88.6364 4.06249 89.1477 4.16666 89.5597 4.37499C89.9716 4.57859 90.303 4.83428 90.554 5.14204C90.8097 5.44507 91.0061 5.74337 91.1435 6.03693H91.2571V4.20454H94.2614V15.2202C94.2614 16.1482 94.0341 16.9247 93.5795 17.5497C93.125 18.1747 92.4953 18.6435 91.6903 18.956C90.8902 19.2732 89.9692 19.4318 88.9276 19.4318ZM88.9915 12.6847C89.4792 12.6847 89.8911 12.5639 90.2273 12.3224C90.5682 12.0762 90.8286 11.7258 91.0085 11.2713C91.1932 10.812 91.2855 10.2628 91.2855 9.62357C91.2855 8.98437 91.1955 8.43039 91.0156 7.96164C90.8357 7.48816 90.5753 7.12121 90.2344 6.86079C89.8935 6.60037 89.4792 6.47017 88.9915 6.47017C88.4943 6.47017 88.0753 6.60511 87.7344 6.87499C87.3935 7.14015 87.1354 7.50946 86.9602 7.98295C86.785 8.45643 86.6974 9.00331 86.6974 9.62357C86.6974 10.2533 86.785 10.7978 86.9602 11.2571C87.1402 11.7116 87.3982 12.0644 87.7344 12.3153C88.0753 12.5615 88.4943 12.6847 88.9915 12.6847Z" fill="#364FC7"/>
</g>
</svg>
